# xmcd
#
# Track frame offsets:
#	150
#	20810
#	38715
#	51995
#	65842
#	85187
#	102820
#	115282
#	129910
#	151397
#	160475
#	186645
#	208955
#	235380
#	255697
#
# Disc length: 3648
#
# Revision: 2
# Processed by: cddbd v1.5.1PL0 Copyright (c) Steve Scherf et al.
# Submitted via: audiograbber 1.80.04
# Normalized: r1:DSETVAR1
#
DISCID=de0e3e0f
DTITLE=Various Artist - Blues Story #30
DYEAR=1998
DGENRE=Blues
TTITLE0=Johnny Winter - Bad Girl Blues
TTITLE1=Sonny Landreth - Taylor's Rock
TTITLE2=Roy Rogers and Norton Buffalo - Jack Of Diamonds -  Queen Of Spades
TTITLE3=Jimmy Thackery - I've Got Other Plans
TTITLE4=Van Wilks - Stiletto Blues
TTITLE5=The James Solberg Band - Too Damn Much Lovin'
TTITLE6=Elmore James - The Sky Is Crying
TTITLE7=Hound Dog Taylor - Talk To My Baby
TTITLE8=Luther Alisson - Give Me Back My Wig
TTITLE9=Corey Harris - Bukka's Jitterburg Swing
TTITLE10=Bo Ramsey - Big Bill
TTITLE11=Spencer Bohren - How Long Blues
TTITLE12=Jon Butcher - At The Feet Of The Master
TTITLE13=Microwave Dave And The Nukes - 20% Alcohol
TTITLE14=Gov't Mule - Gonna Send You Back To Georgia
EXTD=
EXTT0=
EXTT1=
EXTT2=
EXTT3=
EXTT4=
EXTT5=
EXTT6=
EXTT7=
EXTT8=
EXTT9=
EXTT10=
EXTT11=
EXTT12=
EXTT13=
EXTT14=
PLAYORDER=
